<svg width="98" height="95" viewBox="0 0 98 95" fill="none" xmlns="http://www.w3.org/2000/svg">
<g id="Image icon">
<g id="Image icon_2">
<path d="M49.3642 94.9594C35.1461 94.9594 20.9281 94.9594 6.71001 94.9594C6.01548 94.9594 5.31196 94.9594 4.61443 94.8797C1.05492 94.5108 -0.376062 91.8489 1.14174 88.2499C2.45897 85.1427 3.89594 82.1153 5.291 79.0413C11.8771 64.5677 18.4633 50.0963 25.0494 35.6271C25.253 35.1851 25.4655 34.7431 25.702 34.3211C27.3605 31.3701 30.0548 30.9547 32.1774 33.5003C33.6742 35.2815 34.9406 37.2821 36.2757 39.2128C43.0615 49.0562 49.8472 58.9039 56.6329 68.7561C59.5966 73.043 63.3298 73.2756 66.8114 69.4207C68.5388 67.5065 70.2272 65.5425 71.9756 63.645C75.1279 60.2221 78.7054 60.4281 81.28 64.4193C86.4471 72.4282 91.4855 80.5434 96.5478 88.6321C96.9434 89.2667 97.2465 89.9665 97.4459 90.7058C97.9369 92.5634 97.2423 94.0589 95.5449 94.554C94.4805 94.8369 93.388 94.9675 92.2938 94.9428C77.9919 94.9694 63.682 94.975 49.3642 94.9594Z" fill="#D4D2E3"/>
<path d="M81.25 15.6514C81.2463 18.7407 80.4165 21.7592 78.8655 24.3243C77.3146 26.8894 75.1124 28.8855 72.5383 30.0596C69.9641 31.2337 67.1339 31.5329 64.4063 30.9193C61.6788 30.3057 59.1768 28.8069 57.2176 26.6129C55.2584 24.4188 53.9301 21.6285 53.4013 18.5955C52.8724 15.5625 53.1667 12.4235 54.2469 9.57637C55.3271 6.72928 57.1445 4.30234 59.4688 2.60324C61.793 0.904137 64.5195 0.00938402 67.3024 0.0324161C71.0081 0.084691 74.5469 1.75132 77.156 4.67303C79.765 7.59474 81.2354 11.5375 81.25 15.6514Z" fill="#D4D2E3"/>
</g>
</g>
</svg>
