<svg width="41" height="39" viewBox="0 0 41 39" fill="none" xmlns="http://www.w3.org/2000/svg">
<path id="Vector - button" d="M11.955 0C5.36254 0 0 5.10567 0 11.3782V27.6282C0 33.899 5.3675 39 11.9617 39H29.045C35.6375 39 41 33.8943 41 27.6218V11.3718C41 5.10095 35.6325 0 29.0383 0H11.955ZM32.4583 6.5C33.4013 6.5 34.1667 7.228 34.1667 8.125C34.1667 9.022 33.4013 9.75 32.4583 9.75C31.5153 9.75 30.75 9.022 30.75 8.125C30.75 7.228 31.5153 6.5 32.4583 6.5ZM20.5 9.75C26.1529 9.75 30.75 14.1229 30.75 19.5C30.75 24.8771 26.1529 29.25 20.5 29.25C14.8471 29.25 10.25 24.8771 10.25 19.5C10.25 14.1229 14.8471 9.75 20.5 9.75ZM20.5 13C18.6877 13 16.9496 13.6848 15.6681 14.9038C14.3866 16.1228 13.6667 17.7761 13.6667 19.5C13.6667 21.2239 14.3866 22.8772 15.6681 24.0962C16.9496 25.3152 18.6877 26 20.5 26C22.3123 26 24.0504 25.3152 25.3319 24.0962C26.6134 22.8772 27.3333 21.2239 27.3333 19.5C27.3333 17.7761 26.6134 16.1228 25.3319 14.9038C24.0504 13.6848 22.3123 13 20.5 13Z" fill="white"/>
</svg>
