<svg width="40" height="40" viewBox="0 0 40 40" fill="none" xmlns="http://www.w3.org/2000/svg">
<g id="entypo-social:linkedin-with-circle" clip-path="url(#clip0_1439_403)">
<path id="Vector" d="M20.0008 0.799988C9.39678 0.799988 0.800781 9.39599 0.800781 20C0.800781 30.604 9.39678 39.2 20.0008 39.2C30.6048 39.2 39.2008 30.604 39.2008 20C39.2008 9.39599 30.6048 0.799988 20.0008 0.799988ZM15.3008 27.958H11.4128V15.446H15.3008V27.958ZM13.3328 13.91C12.1048 13.91 11.3108 13.04 11.3108 11.964C11.3108 10.866 12.1288 10.022 13.3828 10.022C14.6368 10.022 15.4048 10.866 15.4288 11.964C15.4288 13.04 14.6368 13.91 13.3328 13.91ZM29.5008 27.958H25.6128V21.024C25.6128 19.41 25.0488 18.314 23.6428 18.314C22.5688 18.314 21.9308 19.056 21.6488 19.77C21.5448 20.024 21.5188 20.384 21.5188 20.742V27.956H17.6288V19.436C17.6288 17.874 17.5788 16.568 17.5268 15.444H20.9048L21.0828 17.182H21.1608C21.6728 16.366 22.9268 15.162 25.0248 15.162C27.5828 15.162 29.5008 16.876 29.5008 20.56V27.958Z" fill="white"/>
</g>
<defs>
<clipPath id="clip0_1439_403">
<rect width="40" height="40" fill="white"/>
</clipPath>
</defs>
</svg>
