<svg width="13" height="15" viewBox="0 0 13 15" fill="none" xmlns="http://www.w3.org/2000/svg">
<g id="Group 1">
<path id="Vector" d="M10.7778 7.50003V3.83336C10.7778 2.4828 10.7778 1.38892 8.33333 1.38892H4.66667C2.22222 1.38892 2.22222 2.4828 2.22222 3.83336V7.50003M3.44444 7.50003C1 7.50003 1 8.59392 1 9.94447V10.5556C1 12.2422 1 13.6111 4.05556 13.6111H8.94444C11.3889 13.6111 12 12.2422 12 10.5556V9.94447C12 8.59392 12 7.50003 9.55556 7.50003C8.94444 7.50003 8.77333 7.62836 8.45556 7.86669L7.83222 8.52669C7.66085 8.70898 7.45397 8.85424 7.22432 8.95354C6.99468 9.05284 6.74714 9.10407 6.49694 9.10407C6.24675 9.10407 5.99921 9.05284 5.76956 8.95354C5.53992 8.85424 5.33304 8.70898 5.16167 8.52669L4.54444 7.86669C4.22667 7.62836 4.05556 7.50003 3.44444 7.50003Z" stroke="#232424" stroke-width="1.5" stroke-miterlimit="10" stroke-linecap="round" stroke-linejoin="round"/>
<path id="Vector_2" d="M5.61269 5.80721H7.64769M5.10547 3.97388H8.16102" stroke="#232424" stroke-width="1.5" stroke-linecap="round" stroke-linejoin="round"/>
</g>
</svg>
